<?xml version="1.0" encoding="UTF-8"?>
<svg version="1.1" viewBox="0 0 1000 1000" width="1000" height="1000" xmlns="http://www.w3.org/2000/svg">
<path transform="translate(165,460)" d="m0 0h136l10 9 101 101 8 7 81 81 7-6 190-190 2-1h104l5 6 14 22 16 25v8l-7 8-12 11-48 48-8 7-44 44-8 7-46 46-8 7-46 46-8 7-46 46-8 7-43 43-3 2h-7l-10-10-8-7-46-46-8-7-45-45-8-7-45-45-8-7-46-46-8-7-46-46-8-7-49-49-1-3-1-35v-19z"/>
<path transform="translate(164,149)" d="m0 0h138l79 79 8 7 111 111 4-2 194-194 2-1h104l4 4 11 18 15 23 5 8v8l-7 8-13 12-47 47-8 7-53 53-8 7-55 55-8 7-56 56-8 7-56 56-8 7-7 7-7 1-8-7-21-21-8-7-56-56-8-7-56-56-8-7-56-56-8-7-49-49-8-7-50-50-1-3-1-35v-18z"/>
</svg>
