<?xml version="1.0" encoding="UTF-8"?>
<svg version="1.1" viewBox="0 0 1000 1000" width="1000" height="1000" xmlns="http://www.w3.org/2000/svg">
<path transform="translate(472,120)" d="m0 0h16l13 3 14 7 10 8 11 8 12 5 8 2h23l15-5 16-5h19l12 3 14 7 10 8 9 12 9 19 9 12 12 10 13 6 15 3 19 2 15 6 10 7 10 10 6 10 5 12 2 12v21l3 14 4 10 7 10 4 5 12 9 11 6 11 9 8 11 5 10 3 10 1 7v13l-4 16-10 21-2 8-1 13 2 15 6 15 9 13 5 10 3 10 1 7v12l-3 14-8 16-9 10-10 8-8 7-7 8-7 14-3 12v18l2 15-1 14-4 13-6 11-7 9-11 9-12 6-25 6-9 4-11 7-9 9-8 14-8 23-7 11-7 8-13 9-12 5-8 2h-20l-16-4-16-1-17 3-14 7-11 9-7 8-8 7-10 6-12 4-5 1h-20l-12-3-15-8-10-9-11-7-15-5-5-1h-16l-16 4-13 5-13 2-16-1-15-5-11-7-8-7-9-13-8-17-8-11-9-8-11-6-11-4-5-1-20-2-13-4-10-5-11-9-7-9-7-14-3-12-1-29-4-15-6-11-6-7v-2l-4-2-9-7-12-7-11-9-8-11-5-11-3-11v-21l4-14 8-16 3-9 1-6v-17l-4-15-7-13-7-10-5-12-2-8v-21l5-16 6-10 11-12 13-10 9-10 8-16 3-15v-9l-2-14v-17l4-15 7-13 11-12 11-7 12-5 21-5 9-4 11-7 8-8 8-13 5-16 8-16 7-9 8-7 10-6 10-4 11-2h14l24 5h14l14-3 14-7 12-11 11-11 13-8 13-4z"/>
<path transform="translate(668,343)" d="m0 0h13l10 4 6 5 5 8 2 7v10l-3 9-7 9-96 96-8 7-154 154-9 4-4 1h-8l-9-3-10-8-92-92-6-10-1-3v-15l5-10 7-7 9-4 4-1h8l11 4 10 9 62 62 3 2h7l12-11 222-222 8-4z" fill="#fff"/>
</svg>
