<?xml version="1.0" encoding="UTF-8"?>
<svg version="1.1" viewBox="0 0 2000 2000" width="500" height="500" xmlns="http://www.w3.org/2000/svg">
<path transform="translate(677,1063)" d="m0 0h68l163 1 36 4 26 5 28 8 32 12 21 10 24 14 21 14 17 13 30 27 9 10 12 14 13 17 10 15 11 19 12 23 10 24 8 24 7 28 4 24 3 33 1 23v282l-5 4-24 13-31 13-30 11-33 10-56 14-40 8-49 8-48 6-33 3-34 2-27 1h-82l-44-2-61-5-54-6-40-6-64-12-38-8-41-10-60-16-45-14-9-4-1-8v-318l2-21 5-26 8-30 9-25 11-25 12-22 13-21 14-19 13-15 12-14 10-10 8-7 3-1v-2l11-9 13-10 17-12 22-13 16-9 23-10 34-12 28-7 25-4 30-3z"/>
<path transform="translate(1114,777)" d="m0 0h256l35 4 26 5 25 7 32 12 15 7 16 8 28 17 18 13 14 11 16 15 9 8 7 8 9 10 9 11 15 20 9 15 12 21 13 27 10 27 8 29 5 26 3 25 1 17v301l-9 6-15 8-30 12-48 17-28 8-44 11-40 8-49 8-47 6-35 3-31 2h-18l-1-80-2-43-4-34-7-34-8-28-10-27-8-18-12-25-15-25-17-25-8-10-9-11-11-12-16-17-15-14-11-9-14-11-18-13-18-11-15-9-29-15-25-11-28-9-2-3 7-8 3-1v-2h2v-2h2l2-4 7-7 15-20 7-10 11-17 10-18 8-15 11-27 7-23 6-24 4-22 3-36z"/>
<path transform="translate(756,487)" d="m0 0h29l22 2 25 5 26 7 24 9 19 9 25 15 19 14 14 12 11 10v2h2l7 8 9 10 14 19 14 22 11 23 10 26 7 25 4 23 3 29v25l-2 19-3 20-7 28-9 25-12 25-7 12-9 14-10 14-11 13-7 8-16 16-11 9-16 12-19 12-27 14-15 6-21 7-25 6-28 4-12 1h-29l-26-3-22-4-25-7-24-9-24-12-19-12-14-10-11-9-15-14-13-13-9-11-15-20-12-20-11-21-10-26-7-25-4-21-3-26v-39l3-24 5-24 6-20 11-27 10-20 12-19 12-16 9-11 14-15 10-10 11-9 13-10 15-10 19-11 25-12 31-10 22-5 23-4z"/>
<path transform="translate(1226,199)" d="m0 0h21l21 2 25 5 25 7 20 7 25 12 22 13 19 14 11 9 13 12 9 9 7 8 13 16 12 18 12 21 11 25 7 19 7 28 4 27 1 11v42l-4 28-8 32-8 22-7 16-11 20-11 17-14 19-11 12-1 2h-2l-2 4-8 8-8 7-16 13-13 9-20 12-21 11-24 9-24 7-26 5-16 2h-42l-18-2-29-6-28-8-20-8-5-3-2-9-7-36-8-27-8-22-12-26-11-20-16-24-9-12-12-14-7-8-23-23-28-22-13-9-4-3v-14l2-23 5-27 7-24 10-25 8-16 8-14 9-14 14-18 7-8 23-23 11-9 13-10 15-10 19-11 21-10 22-8 28-8 25-4z"/>
</svg>
