<?xml version="1.0" encoding="UTF-8"?>
<svg version="1.1" viewBox="0 0 1000 1000" width="1000" height="1000" xmlns="http://www.w3.org/2000/svg">
<path transform="translate(473,100)" d="m0 0h55l28 3 29 5 27 7 33 11 23 10 16 8 17 9 19 12 19 13 16 13 14 12 16 15 15 16 9 11 13 16 11 16 12 19 10 18 11 22 11 28 8 24 7 28 5 29 3 31v51l-4 36-7 34-9 31-10 26-8 18-11 22-14 23-14 20-13 17-13 15-8 8-7 8-16 15-14 12-16 12-17 12-15 9-16 9-16 8-25 11-25 9-24 7-35 7-35 4h-55l-36-4-30-6-26-7-29-10-24-11-16-8-20-11-21-14-19-14-14-12-10-9-8-7-11-11-7-8-9-10-11-14-14-19-12-19-10-18-8-16-7-15-10-26-6-19-8-32-5-32-2-21v-55l3-28 5-29 8-31 10-29 11-25 12-24 12-20 8-12 10-14 11-14 12-14 16-17 16-15 14-12 20-15 18-12 15-9 22-12 20-9 29-11 23-7 26-6 23-4zm-158 226 5 5 17 14 14 11 16 13 14 11 16 13 14 11 16 13 14 11 16 13 14 11 16 13 10 8 4 1 14-11 16-13 14-11 16-13 14-11 16-13 14-11 16-13 14-11 16-13 14-11 16-13 4-4zm-28 29v304l3 7 5 5 6 3h398l8-5 4-5 2-5v-304l-8 6-16 13-14 11-16 13-14 11-16 13-14 11-16 13-14 11-16 13-14 11-16 13-14 11-15 12-8 2-9-1-9-6-16-13-14-11-16-13-14-11-16-13-14-11-16-13-14-11-16-13-14-11-16-13-14-11-16-13z"/>
</svg>
