<?xml version="1.0" encoding="UTF-8"?>
<svg version="1.1" viewBox="0 0 2000 2000" width="500" height="500" xmlns="http://www.w3.org/2000/svg">
<path transform="translate(986,204)" d="m0 0h21l14 3 15 6 16 9 12 9 14 12 13 12 12 11 14 12 13 8 8 2h12l19-3 45-9 24-3h21l18 3 13 5 11 6 13 11 10 12 9 16 8 18 8 24 9 29 8 19 6 9 10 7 20 8 41 13 19 7 16 8 11 7 13 11 9 11 9 17 4 16 2 16-2 25-6 31-7 33-2 14v9l4 13 8 11 12 14 12 13 13 14 9 11 11 16 8 14 6 18 2 12v12l-3 17-4 12-8 16-12 17-13 15-9 10-14 15-9 10-9 14-3 8-1 13 5 29 9 43 3 26-1 13-2 14-6 16-7 12-9 11-3 3h-2v2l-10 7-16 9-19 8-58 19-16 8-6 5-6 10-1 8 14 34 18 44 19 46 32 78 19 46 11 27 17 41 11 27 17 41 32 78 12 29 16 39 10 24 2 8v9l-3 9-5 8-8 7-9 4-13 1-8-2-23-11-226-113-5 1-33 22-43 29-44 29-43 29-17 11-9 4-13 1-10-3-9-6-6-7-6-15-58-174-1-7h-2l-3 9-11 30-20 53-15 40-13 35-8 21-5 10-8 8-8 4-13 2-12-2-19-12-13-9-144-96-10-7h-5l-16 8-15 8-19 9-17 9-19 9-19 10-74 37-19 9-17 9-16 8-15 7-5 2-13 1-9-2-8-5-8-9-4-9-1-10 3-13 19-46 12-29 13-32 15-36 13-32 15-36 13-32 15-36 13-32 15-36 13-32 15-36 11-27 17-41 11-27 10-24 7-17v-7l-6-11-1-3-20-10-16-6-39-12-20-8-17-9-12-9-12-12-9-14-5-12-4-17v-28l5-30 6-27 4-20v-23l-4-10-10-13-9-10-10-11-7-8-5-5v-2h-2l-9-11-12-17-9-17-5-16-2-14v-9l3-16 4-13 10-19 10-14 12-14 12-13 15-16 8-10 9-14 1-4v-21l-5-27-6-28-4-24v-28l4-18 8-16 7-10 9-10 12-9 16-9 19-8 56-18 17-8 7-6 7-12 23-69 8-18 9-15 9-11 7-7 16-10 10-4 20-4h24l30 4 43 9 17 2h11l10-4 11-8 14-12 12-11 15-14 10-8 12-9 15-9 15-6zm7 67-14 7-12 9-15 14-4 3v2l-4 2-7 7-11 9-12 10-15 9-12 6-17 5-8 1h-23l-25-3-48-10-16-2h-15l-6 4-5 6-7 14-23 69-8 16-8 13-9 11-12 10-19 11-23 9-50 16-16 7-8 6-4 5-1 2v23l6 30 7 33 2 15v26l-3 15-5 14-8 15-7 10-8 10-11 12-7 8-2 4h-2l-7 8-11 12-7 10-5 10-1 4v7l3 8 9 13 11 13 16 17 11 12 11 14 10 15 6 12 5 16 2 13v22l-2 17-6 29-7 33-1 19 3 9 8 7 14 7 37 12 27 9 15 7 13 7 12 9 4 2 2 4 8 9 8 13 7 14 9 25 12 38 7 17 6 9 5 4 8 2 19-1 26-5 27-6 21-3 11-1h10l21 3 15 5 15 8 11 8 10 8 10 9 8 7 17 16 11 9 10 7 9 4h11l12-6 14-11 20-18 7-7 8-7 11-9 14-10 15-8 15-5 11-2h29l26 4 50 10 10 1h9l8-2 8-7 7-14 23-69 10-21 10-14 13-13 15-10 19-9 66-22 17-8 7-7 1-3v-23l-8-39-6-30-1-8v-28l4-17 5-13 8-14 8-11 13-16 14-15 4-4v-2h2l7-8 11-14 6-9 2-6v-10l-7-14-9-11-12-14-7-7-7-8-7-7-11-14-10-14-9-19-4-15-1-6v-28l6-34 8-37 1-6v-23l-4-7-11-7-20-8-47-15-22-9-15-9-14-12-8-9-9-14-8-17-7-19-13-42-7-16-6-10-6-4-4-1h-15l-30 5-34 7-12 2-11 1h-23l-13-2-19-7-15-9-13-10-14-12-7-7-8-7-13-12-13-10-16-8z"/>
<path transform="translate(989,402)" d="m0 0h14l32 2 30 4 25 5 28 8 25 9 17 7 16 8 19 10 24 15 18 13 16 13 14 12 25 25 9 11 11 13 13 18 11 17 10 17 12 23 12 29 10 30 7 28 5 31 3 31v42l-4 38-5 26-7 27-9 27-11 26-9 19-12 21-11 17-12 17-14 17-1 2h-2l-2 4-14 15-17 17-11 9-13 11-18 13-22 14-25 14-17 8-27 11-25 8-28 7-30 5-26 3h-53l-27-3-29-5-32-8-29-10-25-11-17-8-24-14-18-12-16-12-14-11-15-14-26-26-9-11-13-16-13-19-13-21-10-18-11-24-10-27-8-26-6-27-4-24-3-30v-42l4-38 6-31 7-26 10-29 11-26 10-19 8-14 12-19 14-19 11-14 10-11 7-8 22-22 11-9 16-13 20-14 18-11 16-9 22-11 27-11 28-9 25-6 21-4 24-3z"/>
</svg>
